<?xml version="1.0" standalone="no"?>
<!DOCTYPE svg PUBLIC "-//W3C//DTD SVG 20010904//EN"
 "http://www.w3.org/TR/2001/REC-SVG-20010904/DTD/svg10.dtd">
<svg version="1.0" xmlns="http://www.w3.org/2000/svg"
 width="2000.000000pt" height="1333.000000pt" viewBox="0 0 2000.000000 1333.000000"
 preserveAspectRatio="xMidYMid meet">

<g transform="translate(0.000000,1333.000000) scale(0.100000,-0.100000)"
fill="#000000" stroke="none">
<path d="M9280 11725 c-305 -62 -836 -169 -1180 -239 -344 -69 -769 -155 -945
-191 -176 -36 -396 -81 -490 -100 -198 -40 -804 -166 -1085 -225 -107 -23
-235 -50 -285 -60 -128 -27 -493 -109 -537 -121 -21 -5 -38 -14 -38 -19 0 -6
3 -10 6 -10 10 0 290 -39 394 -55 114 -18 591 -85 1090 -155 201 -28 460 -64
575 -80 116 -17 229 -33 253 -36 l42 -5 0 -572 c0 -315 4 -578 8 -584 6 -10
553 -13 2645 -15 l2637 -3 2 565 3 564 35 7 c19 4 119 15 223 25 103 10 193
22 200 26 9 5 12 59 11 205 -2 297 -22 420 -80 505 -32 46 -64 61 -184 87 -88
19 -320 71 -1325 297 -209 47 -528 118 -710 159 -181 41 -401 90 -488 109 -88
20 -173 35 -190 35 -18 -1 -282 -52 -587 -114z"/>
<path d="M12890 11165 c0 -3 9 -23 20 -44 41 -82 80 -347 80 -549 l0 -118 203
22 c111 12 249 28 307 34 58 6 148 16 200 21 52 5 131 13 175 19 154 18 681
76 975 106 80 8 152 17 160 20 13 5 13 6 0 14 -8 4 -121 31 -250 60 -129 28
-291 64 -360 80 -69 16 -206 47 -305 69 -99 22 -270 60 -380 85 -110 25 -252
57 -315 70 -147 32 -470 105 -492 112 -10 3 -18 3 -18 -1z"/>
<path d="M3240 9419 c-94 -10 -145 -26 -232 -71 -242 -125 -378 -409 -324
-678 30 -147 120 -295 227 -373 37 -26 33 -21 -22 33 -131 129 -189 253 -197
424 -5 116 5 186 41 271 70 168 217 303 392 358 84 26 260 31 340 8 141 -39
296 -154 374 -276 17 -27 31 -44 31 -39 0 16 -53 95 -99 146 -85 96 -249 182
-368 194 -32 3 -67 7 -78 8 -11 2 -49 0 -85 -5z"/>
<path d="M5004 9309 c-28 -4 -60 -11 -72 -18 -11 -6 -59 -11 -107 -11 -65 0
-95 -5 -123 -19 -50 -26 -107 -87 -128 -136 -9 -22 -40 -65 -69 -96 -61 -63
-78 -109 -69 -184 5 -41 2 -60 -15 -93 -26 -51 -26 -64 -1 -129 15 -41 18 -66
14 -111 -5 -44 -2 -66 10 -90 9 -17 16 -53 16 -79 1 -26 9 -63 18 -80 17 -32
17 -27 14 174 -4 213 6 309 35 320 24 9 83 95 83 119 0 17 10 28 35 40 38 18
75 58 75 81 0 9 6 13 14 10 8 -3 43 -9 78 -13 37 -4 73 -15 87 -25 35 -28 93
-25 130 6 l30 26 33 -21 c21 -12 50 -20 81 -20 44 0 47 -2 47 -26 0 -38 29
-81 67 -99 29 -14 33 -20 31 -53 -1 -43 14 -77 41 -92 16 -8 18 -17 14 -50 -5
-33 -2 -45 17 -65 22 -23 22 -25 6 -59 -22 -46 -20 -72 5 -89 17 -13 19 -18 8
-35 -15 -24 -6 -52 18 -52 32 0 128 29 131 39 7 20 50 -20 66 -60 21 -52 20
-115 -3 -166 -23 -49 -61 -72 -129 -77 l-47 -4 -6 -119 c-4 -65 -7 -178 -8
-250 l-1 -133 45 2 c38 2 54 -4 106 -41 53 -36 68 -42 95 -36 36 6 119 82 145
131 14 27 24 32 67 38 127 17 202 81 202 174 0 31 -7 48 -31 73 l-31 33 23 16
c13 8 40 29 59 46 l35 32 -1 -184 c-1 -121 3 -189 10 -197 9 -11 495 -12 2711
-8 l2700 6 -1564 8 c-860 4 -2074 7 -2698 7 l-1133 0 0 225 0 225 2730 0 2730
0 3 -237 2 -238 3 248 2 247 -2735 0 -2735 0 0 25 c0 13 -14 40 -30 59 -31 34
-31 34 -10 49 30 21 60 85 60 130 0 72 -53 142 -128 168 l-29 10 24 46 c57
114 -1 244 -125 276 -44 11 -51 15 -39 25 8 7 20 33 26 58 38 151 -132 294
-319 269 -68 -10 -161 -15 -260 -14 -67 0 -79 3 -119 31 -48 35 -128 48 -217
37z"/>
<path d="M6298 9133 c7 -3 16 -2 19 1 4 3 -2 6 -13 5 -11 0 -14 -3 -6 -6z"/>
<path d="M6592 9134 c8 -7 6459 -12 6808 -4 151 3 -1320 7 -3269 8 -1949 1
-3542 -1 -3539 -4z"/>
<path d="M13698 9133 c12 -2 30 -2 40 0 9 3 -1 5 -23 4 -22 0 -30 -2 -17 -4z"/>
<path d="M6760 9010 c226 -10 6664 -10 6770 -1 47 5 -1494 8 -3425 8 -1931 -1
-3436 -4 -3345 -7z"/>
<path d="M7055 8890 c-231 -3 1184 -5 3145 -6 1961 0 3493 3 3405 6 -205 7
-5993 8 -6550 0z"/>
<path d="M6453 8883 c31 -2 83 -2 115 0 31 2 5 3 -58 3 -63 0 -89 -1 -57 -3z"/>
<path d="M3010 8810 c-42 -42 -11 -113 50 -113 22 0 39 7 52 22 23 30 23 52
-3 85 -25 32 -70 35 -99 6z"/>
<path d="M3237 8812 c-26 -29 -22 -77 10 -101 63 -51 141 41 83 99 -25 25 -72
26 -93 2z"/>
<path d="M3470 8810 c-51 -51 10 -142 73 -108 30 15 37 27 37 64 0 58 -68 86
-110 44z"/>
<path d="M8950 8770 l-2675 -5 3744 -3 c2059 -1 3742 0 3740 2 -8 9 -2098 11
-4809 6z"/>
<path d="M4594 8716 c-10 -8 -17 -16 -14 -19 9 -8 150 -14 155 -6 10 15 -40
39 -80 39 -23 0 -50 -6 -61 -14z"/>
<path d="M5022 8715 c-51 -22 -29 -35 58 -35 65 0 78 3 74 14 -6 15 -55 36
-83 36 -9 -1 -31 -7 -49 -15z"/>
<path d="M7200 8650 c-426 -3 877 -6 2895 -6 2019 0 3591 3 3495 6 -201 8
-5231 8 -6390 0z"/>
<path d="M6268 8643 c7 -3 16 -2 19 1 4 3 -2 6 -13 5 -11 0 -14 -3 -6 -6z"/>
<path d="M4598 8564 c-38 -20 -36 -36 3 -22 17 6 51 8 77 5 l47 -5 -24 19
c-28 23 -66 24 -103 3z"/>
<path d="M5009 8560 l-24 -21 35 7 c45 10 68 10 105 1 l30 -7 -24 20 c-31 27
-91 27 -122 0z"/>
<path d="M4825 8550 c-11 -17 -105 -301 -105 -316 0 -7 9 -18 19 -24 25 -13
84 -13 76 0 -3 6 -22 10 -41 10 -19 0 -34 5 -34 11 0 6 22 81 50 167 45 140
55 185 35 152z"/>
<path d="M12220 7978 l0 -568 -3251 0 c-1788 0 -3249 -3 -3247 -7 31 -61 60
-133 69 -171 13 -55 14 -526 2 -802 -4 -102 -8 -212 -8 -245 l0 -60 35 -1 c19
0 1967 -1 4328 -2 4080 -2 4292 -3 4292 -19 0 -10 -5 -25 -11 -33 -8 -12 -9
-9 -5 13 l6 27 -950 0 c-882 0 -951 -1 -957 -17 -4 -9 -7 -137 -7 -283 l-1
-267 -1055 -6 c-580 -4 -2091 -7 -3358 -7 l-2304 0 9 -32 c17 -67 10 -122 -20
-162 l-28 -36 -82 5 c-45 2 -165 5 -266 5 l-184 0 74 37 c122 61 292 254 360
409 29 65 57 184 74 309 22 172 54 866 35 780 -5 -22 -13 -156 -19 -297 -22
-500 -58 -722 -139 -843 -15 -22 -33 -51 -40 -65 -43 -81 -176 -218 -255 -264
-23 -13 -70 -34 -105 -45 -61 -21 -74 -21 -545 -16 -265 3 -572 7 -682 9
l-200 4 -13 202 c-11 157 -11 205 -2 210 7 4 83 22 169 39 86 18 208 43 271
57 63 13 183 38 265 55 83 17 222 46 310 65 88 19 165 34 171 34 12 0 68 -108
79 -152 4 -16 12 -28 17 -28 19 0 -23 114 -65 175 -11 17 -11 106 4 565 9 300
22 571 29 603 6 32 10 66 7 75 -2 9 -11 -28 -21 -83 -10 -55 -22 -111 -27
-125 -9 -25 -49 -252 -89 -500 -41 -257 -83 -392 -154 -505 -28 -43 -42 -56
-73 -64 -59 -14 -391 -86 -668 -144 l-250 -52 0 -40 c0 -22 4 -100 8 -172 l8
-133 -154 0 c-85 0 -317 3 -516 7 l-363 6 -142 191 c-302 405 -524 703 -564
758 -45 62 -76 77 -114 57 -74 -39 -71 -45 274 -528 171 -240 338 -471 369
-513 93 -124 96 -114 -36 -121 -145 -8 -190 -26 -272 -110 -65 -65 -115 -152
-132 -227 -12 -51 -13 -163 -1 -200 5 -18 0 -38 -20 -75 -88 -159 -94 -359
-18 -620 51 -178 106 -360 180 -595 43 -140 99 -320 124 -400 25 -80 50 -160
56 -178 5 -18 16 -36 23 -39 8 -2 146 7 307 21 161 14 297 26 302 26 11 0 1
219 -10 230 -5 4 -79 -41 -164 -101 -85 -59 -158 -108 -162 -109 -10 0 -10 51
0 66 4 7 201 155 437 329 237 174 434 321 439 325 8 8 -51 119 -78 146 -8 7
-24 29 -36 49 -12 19 -24 35 -27 35 -3 0 -43 -35 -88 -78 -70 -68 -204 -162
-229 -162 -5 0 -14 8 -21 17 -18 24 -58 4 -81 -39 l-18 -33 -7 30 c-12 46 -59
418 -53 424 5 5 668 -16 801 -26 79 -6 82 -7 85 -32 l3 -26 325 -6 c179 -3
385 -11 458 -18 108 -10 155 -10 245 1 91 10 841 13 3941 13 l3828 0 2 -105 1
-105 307 -3 307 -2 10 37 c62 238 100 406 96 414 -4 5 -399 9 -1037 9 l-1030
0 6 208 c3 114 5 366 6 560 l0 352 1569 0 1569 0 7 115 c8 127 2 185 -20 185
-8 0 -15 -5 -15 -11 0 -5 5 -7 10 -4 6 3 10 1 10 -4 0 -6 -7 -11 -15 -11 -8 0
-15 7 -15 15 0 13 -108 15 -887 17 l-888 3 -3 243 -2 242 907 -2 c799 -3 908
-5 908 -18 0 -8 7 -15 15 -15 15 0 22 -18 37 -90 6 -30 13 -41 30 -43 24 -4
43 25 73 112 15 44 21 51 51 57 37 8 49 -1 49 -37 0 -12 11 -37 24 -57 13 -19
21 -39 18 -43 -4 -4 -2 -4 4 -1 12 7 38 -16 29 -24 -2 -3 4 -6 13 -7 9 -1 43
-4 74 -8 71 -8 95 -2 143 36 40 32 65 70 65 100 0 10 7 26 16 35 24 24 36 6
63 -89 18 -64 20 -81 9 -88 -10 -8 -9 -9 4 -5 11 4 18 -2 22 -16 7 -26 9 -25
-39 -28 -49 -3 -61 -9 -44 -20 23 -15 86 -10 100 7 15 18 19 53 7 60 -4 3 -8
10 -8 15 0 6 7 3 16 -6 30 -29 75 -46 122 -45 83 3 100 5 95 13 -2 4 0 7 5 7
4 0 19 15 32 33 12 17 17 26 9 20 -15 -15 -33 -17 -24 -4 3 5 1 12 -4 16 -6 3
-8 -3 -6 -13 4 -24 -37 -45 -69 -37 -17 5 -18 4 -6 -4 12 -8 6 -11 -25 -11
-31 0 -37 3 -25 11 12 8 10 9 -7 4 -12 -3 -35 1 -52 9 -64 34 -98 110 -80 181
32 125 189 166 293 76 18 -15 18 -15 7 6 -6 12 -15 25 -21 28 -5 3 -7 13 -4
23 4 12 3 14 -3 4 -8 -10 -15 -11 -36 -1 -14 6 -24 17 -21 23 10 29 -16 41
-91 43 -41 0 -77 -3 -81 -8 -3 -5 2 -6 10 -3 11 4 13 0 9 -15 -6 -22 -1 -24
47 -22 23 0 23 0 -5 -11 -16 -6 -35 -15 -42 -20 -7 -5 -18 -6 -24 -2 -7 4 -9
3 -5 -4 3 -6 -2 -17 -12 -24 -11 -7 -22 -23 -26 -35 -4 -13 -12 -23 -17 -23
-6 0 -7 -4 -4 -10 3 -5 2 -10 -3 -10 -5 0 -15 21 -23 47 -8 26 -19 48 -26 51
-9 2 -10 -5 -2 -30 13 -47 12 -55 -11 -61 -11 -3 -18 -1 -14 4 3 5 -6 31 -20
58 -13 27 -22 52 -20 55 2 3 1 4 -2 1 -12 -8 -45 16 -38 27 4 6 3 8 -3 5 -5
-3 -27 1 -49 8 l-39 15 37 -2 c43 -2 51 3 42 25 -13 35 -122 49 -162 21 -31
-22 -19 -34 34 -34 49 0 54 -16 5 -18 -61 -2 -146 -73 -158 -133 -3 -18 -12
-29 -22 -29 -9 0 -25 -3 -37 -6 l-21 -6 16 86 c9 47 22 91 29 98 6 6 12 22 12
34 0 31 15 38 73 35 51 -3 87 14 120 55 15 19 22 22 42 14 14 -5 25 -6 25 -1
0 5 14 14 30 21 17 7 42 27 58 44 25 29 31 31 80 28 48 -4 55 -1 81 27 16 17
32 46 35 66 5 27 12 35 28 35 29 0 89 -42 83 -57 -2 -7 1 -12 8 -10 18 3 103
-175 111 -233 6 -44 9 -50 31 -50 13 0 35 10 50 23 35 30 46 74 30 121 -11 31
-11 43 1 72 20 48 17 87 -8 120 -12 16 -26 31 -30 34 -4 3 0 27 9 53 23 71 5
114 -63 147 -37 18 -53 32 -57 50 -3 14 -15 38 -27 53 -37 47 -76 61 -172 61
-83 1 -88 0 -117 -28 -28 -27 -32 -28 -44 -13 -31 42 -104 47 -172 12 -27 -13
-53 -21 -58 -18 -6 3 -7 1 -3 -5 6 -9 -6 -44 -20 -61 -2 -2 -15 6 -30 18 -52
41 -177 18 -218 -41 -9 -12 -16 -35 -16 -50 l0 -28 -646 0 c-427 0 -643 -3
-639 -10 4 -6 218 -10 608 -10 537 0 599 -2 580 -15 -30 -21 -57 -97 -50 -140
5 -28 2 -37 -13 -45 -12 -6 -223 -10 -575 -10 -368 0 -554 -3 -550 -10 4 -6
198 -10 549 -10 l543 0 -4 -47 c-4 -40 0 -55 21 -86 14 -21 26 -42 26 -47 0
-6 -216 -10 -575 -10 l-575 0 0 430 0 430 785 0 786 0 -3 98 -3 97 -235 5
-235 5 4 78 3 77 -961 0 -961 0 0 410 0 410 960 0 960 0 0 63 c0 34 -4 68 -8
74 -6 10 -237 13 -1065 15 l-1057 3 0 -567z m2743 -1757 c33 -13 85 -64 97
-96 23 -60 2 -137 -47 -179 -21 -18 -31 -21 -41 -14 -7 6 -15 8 -19 4 -3 -3 0
-6 8 -6 10 -1 8 -5 -5 -15 -50 -38 -164 1 -204 70 -45 78 -12 188 70 228 37
18 104 22 141 8z m-2266 -147 c-3 -3 -12 -4 -19 -1 -8 3 -5 6 6 6 11 1 17 -2
13 -5z m783 -523 c509 -1 927 -4 929 -7 2 -2 -417 -4 -932 -4 l-937 0 2 268 2
267 6 -261 5 -261 925 -2z m-9872 -298 c-10 -2 -26 -2 -35 0 -10 3 -2 5 17 5
19 0 27 -2 18 -5z m204 -3 c27 0 47 -3 45 -7 -3 -5 -55 -7 -116 -5 -76 2 -109
7 -105 14 4 7 28 8 67 4 33 -3 82 -6 109 -6z m4148 -585 l0 -415 -1210 0
c-665 0 -1210 2 -1210 5 0 3 9 24 21 47 36 71 68 220 78 369 6 77 8 152 6 167
-2 15 -6 75 -9 135 l-6 107 1165 0 1165 0 0 -415z m1679 371 c69 -36 150 -112
183 -173 46 -84 61 -156 56 -260 -5 -82 -10 -103 -41 -166 -101 -203 -324
-295 -519 -213 -156 67 -258 228 -258 412 0 119 36 214 115 302 90 100 171
133 310 129 86 -3 107 -7 154 -31z m-6161 -1419 c-2 -16 -10 -22 -28 -22 -28
0 -39 27 -20 50 18 21 52 1 48 -28z m-363 -17 c3 -5 -8 -16 -25 -25 -33 -17
-39 -11 -13 17 18 20 29 23 38 8z"/>
<path d="M14848 6185 c-42 -24 -34 -35 22 -28 30 3 61 1 80 -7 39 -16 50 -6
23 21 -26 27 -90 34 -125 14z"/>
<path d="M15010 6160 c-9 -6 -10 -10 -3 -10 6 0 15 5 18 10 8 12 4 12 -15 0z"/>
<path d="M14846 6141 c-3 -4 4 -7 14 -6 27 2 33 10 10 12 -11 1 -22 -2 -24 -6z"/>
<path d="M14761 6124 c0 -11 3 -14 6 -6 3 7 2 16 -1 19 -3 4 -6 -2 -5 -13z"/>
<path d="M14781 6114 c0 -11 3 -14 6 -6 3 7 2 16 -1 19 -3 4 -6 -2 -5 -13z"/>
<path d="M14934 6050 c-15 -6 -23 -19 -26 -42 -3 -32 -2 -33 33 -36 39 -3 63
15 57 44 -5 25 -39 44 -64 34z"/>
<path d="M14787 5959 c7 -7 15 -10 18 -7 3 3 -2 9 -12 12 -14 6 -15 5 -6 -5z"/>
<path d="M14840 5950 c0 -5 5 -10 11 -10 5 0 7 5 4 10 -3 6 -8 10 -11 10 -2 0
-4 -4 -4 -10z"/>
<path d="M14980 5946 c7 -7 13 -7 20 0 6 6 3 10 -10 10 -13 0 -16 -4 -10 -10z"/>
<path d="M9400 4951 c-52 -16 -108 -51 -140 -87 -90 -103 -112 -249 -56 -372
91 -198 317 -243 467 -93 101 102 125 244 63 380 -59 134 -209 210 -334 172z"/>
<path d="M4617 8413 c-12 -12 -7 -50 8 -63 17 -14 51 -5 59 16 13 35 -41 73
-67 47z"/>
<path d="M4970 8401 c-20 -38 13 -71 51 -51 21 12 25 40 7 58 -18 18 -46 14
-58 -7z"/>
<path d="M4887 8133 c-51 -35 -40 -41 14 -7 40 25 43 26 56 8 20 -27 16 -75
-9 -101 -12 -13 -16 -23 -10 -23 22 0 53 63 47 94 -11 62 -38 70 -98 29z"/>
<path d="M4637 7403 c-4 -3 -7 -78 -7 -166 l0 -160 90 129 c75 107 90 135 90
166 l0 38 -83 0 c-46 0 -87 -3 -90 -7z"/>
<path d="M13320 7010 c-36 -4 288 -7 720 -7 446 0 738 3 675 8 -129 9 -1300 8
-1395 -1z"/>
<path d="M16389 6882 c-45 -37 -16 -122 41 -122 9 0 29 9 44 21 33 26 34 68 3
97 -28 27 -57 28 -88 4z"/>
<path d="M16622 6884 c-29 -20 -30 -76 -2 -104 41 -41 110 -10 110 50 0 58
-60 88 -108 54z"/>
<path d="M16845 6875 c-14 -13 -25 -33 -25 -45 0 -27 43 -70 70 -70 27 0 70
43 70 70 0 27 -43 70 -70 70 -11 0 -32 -11 -45 -25z"/>
<path d="M15296 6542 c-2 -4 4 -8 14 -8 10 0 16 4 14 8 -3 4 -9 8 -14 8 -5 0
-11 -4 -14 -8z"/>
<path d="M15386 6477 c3 -10 9 -15 12 -12 3 3 0 11 -7 18 -10 9 -11 8 -5 -6z"/>
<path d="M15435 6280 c3 -5 8 -10 11 -10 2 0 4 5 4 10 0 6 -5 10 -11 10 -5 0
-7 -4 -4 -10z"/>
<path d="M15211 6264 c0 -11 3 -14 6 -6 3 7 2 16 -1 19 -3 4 -6 -2 -5 -13z"/>
<path d="M15455 6250 c3 -5 8 -10 11 -10 2 0 4 5 4 10 0 6 -5 10 -11 10 -5 0
-7 -4 -4 -10z"/>
<path d="M14661 6154 c0 -11 3 -14 6 -6 3 7 2 16 -1 19 -3 4 -6 -2 -5 -13z"/>
<path d="M15253 6145 c-23 -25 -14 -32 37 -27 29 2 63 -1 80 -8 39 -16 50 -5
22 23 -27 26 -119 34 -139 12z"/>
<path d="M15462 6110 c0 -19 2 -27 5 -17 2 9 2 25 0 35 -3 9 -5 1 -5 -18z"/>
<path d="M15308 6103 c7 -3 16 -2 19 1 4 3 -2 6 -13 5 -11 0 -14 -3 -6 -6z"/>
<path d="M15433 6088 c1 -15 6 -23 11 -18 4 4 4 16 -2 26 -9 16 -10 14 -9 -8z"/>
<path d="M15463 6020 c0 -25 2 -35 4 -22 2 12 2 32 0 45 -2 12 -4 2 -4 -23z"/>
<path d="M15312 6035 c-30 -13 -33 -18 -31 -53 3 -36 4 -38 33 -34 54 8 74 43
41 75 -8 8 -11 17 -8 21 9 9 2 7 -35 -9z"/>
<path d="M14396 5968 c-32 -45 -13 -144 28 -153 36 -7 52 -2 52 16 0 14 -4 15
-18 8 -21 -11 -38 -4 -38 17 0 8 -4 14 -10 14 -16 0 -12 53 6 78 20 29 37 29
29 0 -7 -22 -7 -22 8 -3 8 10 13 25 10 32 -8 21 -50 15 -67 -9z"/>
<path d="M15225 5959 c-4 -6 -5 -12 -2 -15 2 -3 7 2 10 11 7 17 1 20 -8 4z"/>
<path d="M14730 5916 c0 -2 8 -10 18 -17 15 -13 16 -12 3 4 -13 16 -21 21 -21
13z"/>
<path d="M14858 5853 c7 -3 16 -2 19 1 4 3 -2 6 -13 5 -11 0 -14 -3 -6 -6z"/>
<path d="M15270 5836 c0 -2 7 -7 16 -10 8 -3 12 -2 9 4 -6 10 -25 14 -25 6z"/>
<path d="M15446 5822 c-2 -4 -1 -14 4 -22 7 -11 9 -9 7 8 -1 24 -3 26 -11 14z"/>
<path d="M15016 5783 c-6 -14 -5 -15 5 -6 7 7 10 15 7 18 -3 3 -9 -2 -12 -12z"/>
<path d="M14932 5755 c0 -16 2 -22 5 -12 2 9 2 23 0 30 -3 6 -5 -1 -5 -18z"/>
<path d="M14963 5763 c-8 -3 -13 -23 -13 -47 0 -94 82 -130 136 -62 27 33 41
72 23 60 -5 -3 -7 -10 -3 -15 3 -6 -3 -5 -14 2 -12 7 -18 17 -15 23 3 5 2 6
-4 3 -5 -4 -25 5 -43 18 -34 25 -44 28 -67 18z"/>
<path d="M15451 5714 c0 -11 3 -14 6 -6 3 7 2 16 -1 19 -3 4 -6 -2 -5 -13z"/>
<path d="M15441 5554 c0 -11 3 -14 6 -6 3 7 2 16 -1 19 -3 4 -6 -2 -5 -13z"/>
<path d="M14780 5418 c-8 -7 -13 -12 -11 -11 2 2 16 -14 30 -35 14 -20 35 -47
46 -58 20 -20 103 -77 115 -79 3 -1 14 -4 25 -8 11 -4 48 -11 83 -15 69 -10
64 -14 75 60 3 19 0 25 -10 21 -17 -7 -17 2 3 21 8 9 10 16 4 16 -6 0 -13 -7
-16 -15 -12 -30 -117 -9 -232 46 -40 20 -42 22 -25 36 16 13 16 13 -4 3 -24
-11 -58 -1 -65 20 -2 7 -9 6 -18 -2z"/>
<path d="M15370 5405 c-7 -8 -16 -13 -20 -10 -4 3 -13 -2 -19 -9 -9 -10 -9
-16 -1 -21 6 -4 9 -1 8 7 -2 7 2 12 8 11 7 -1 20 7 29 17 10 11 16 20 13 20
-3 0 -11 -7 -18 -15z"/>
<path d="M15289 5408 c0 -2 -2 -11 -4 -21 -3 -15 -1 -16 11 -6 7 6 11 15 8 20
-5 9 -13 12 -15 7z"/>
<path d="M11395 5080 c4 -7 433 -10 1256 -10 826 0 1249 3 1249 10 0 7 -425
10 -1256 10 -834 0 -1253 -3 -1249 -10z"/>
<path d="M11500 4890 c274 -12 2138 -11 2145 0 4 7 -382 9 -1152 8 -637 -1
-1084 -5 -993 -8z"/>
<path d="M11780 4710 c-307 -4 -103 -6 658 -8 734 -1 1101 1 1097 8 -6 10
-887 10 -1755 0z"/>
<path d="M15560 4581 c0 -23 -64 -468 -91 -626 -35 -213 -58 -327 -105 -533
-20 -84 -33 -160 -30 -168 3 -8 -1 -14 -10 -14 -17 0 -64 -21 -109 -48 -16
-10 -34 -32 -40 -48 -5 -17 -36 -74 -68 -127 -32 -54 -56 -103 -54 -110 2 -7
11 4 20 23 9 19 38 69 65 110 26 41 52 89 58 105 8 25 15 30 40 30 22 -1 31 4
30 14 -1 12 25 21 104 38 116 25 158 23 186 -9 19 -21 19 -21 -5 -8 -15 7 -21
8 -17 1 4 -6 3 -11 -3 -11 -5 0 -13 5 -16 10 -8 13 -105 13 -161 -1 -50 -13
-75 -36 -28 -26 124 27 177 19 237 -37 15 -14 27 -22 27 -19 0 4 14 -6 30 -22
30 -29 43 -58 15 -35 -13 11 -14 10 -9 -4 4 -10 12 -15 20 -12 16 6 44 -36 44
-69 0 -19 -5 -25 -21 -25 -18 0 -20 4 -15 28 5 20 4 23 -4 12 -7 -10 -10 -11
-11 -2 -13 112 -173 181 -329 141 -27 -7 -50 -16 -50 -19 0 -15 13 -17 48 -4
51 18 130 17 190 -2 58 -19 113 -70 115 -107 1 -14 5 -23 10 -20 7 4 11 -20 7
-46 -1 -8 4 -12 12 -9 7 3 103 25 213 48 189 41 252 60 193 60 -14 0 -40 5
-58 11 -26 10 -38 9 -59 -3 -16 -10 -56 -16 -106 -17 l-81 -2 -12 35 c-15 41
-143 165 -197 191 -32 14 -46 15 -99 6 -92 -16 -100 -15 -92 12 80 279 156
681 206 1087 11 91 22 180 24 198 3 17 1 32 -5 32 -5 0 -9 -4 -9 -9z m79
-1433 c59 -56 85 -93 76 -108 -11 -17 -20 -11 -40 26 -10 19 -36 49 -57 66
-21 16 -36 34 -33 39 4 5 0 6 -8 3 -8 -3 -19 2 -26 10 -11 13 -9 15 13 13 14
-1 46 -22 75 -49z"/>
<path d="M11365 4520 c-4 -7 362 -10 1054 -10 706 0 1061 3 1061 10 0 14
-2107 14 -2115 0z"/>
<path d="M11425 4330 c113 -12 2005 -12 2005 0 0 7 -351 9 -1037 8 -571 0
-1006 -4 -968 -8z"/>
<path d="M13941 3789 c-57 -231 -101 -422 -99 -425 3 -2 50 -20 104 -38 54
-19 196 -69 314 -111 118 -42 301 -106 405 -142 105 -36 200 -69 212 -74 21
-8 19 -13 -57 -216 -76 -200 -80 -208 -105 -206 -14 1 -74 -17 -133 -41 -275
-110 -447 -135 -712 -102 -63 8 -158 24 -210 36 -52 12 -106 24 -119 27 -23 6
-23 4 -20 -56 l4 -61 -435 -3 -435 -2 0 -108 c0 -64 -4 -107 -10 -108 -5 0
-1880 -1 -4165 -2 -2285 0 -4114 -4 -4065 -8 50 -4 2129 -7 4621 -8 l4530 -1
23 -72 c80 -246 256 -440 472 -518 l54 -19 -1187 -1 -1186 0 4 228 c3 125 1
256 -4 292 -9 60 -10 53 -12 -85 -2 -82 -2 -214 0 -292 l2 -142 -3863 -6
c-2125 -3 -4104 -8 -4397 -11 l-532 -5 2 -317 3 -317 6535 -3 c3594 -1 6551 0
6570 4 l35 6 -45 39 -45 39 -852 0 -853 0 0 235 0 235 695 0 c676 0 695 -1
686 -19 -9 -16 49 -73 444 -437 250 -230 459 -420 465 -422 17 -6 3 39 -50
168 -26 63 -50 123 -53 133 -6 16 19 17 431 17 240 0 443 4 450 9 8 5 12 22
10 42 l-3 34 -468 3 -467 2 -17 35 c-20 41 -49 52 -94 36 -47 -16 -57 -13 -30
9 13 12 38 20 58 20 l35 0 -30 53 c-34 60 -60 77 -120 77 -24 0 -41 4 -38 9
10 16 60 19 98 7 36 -13 37 -13 84 35 l47 48 -34 30 c-18 17 -42 34 -51 37
-19 6 -25 24 -8 24 21 0 68 -30 87 -55 l19 -26 23 25 24 25 59 -49 c33 -28 65
-50 72 -50 6 0 52 41 101 90 l90 90 276 0 c300 0 289 -2 289 55 0 31 -30 35
-280 35 l-205 0 112 112 111 111 74 -64 c155 -133 379 -323 614 -519 49 -41
91 -77 94 -80 20 -24 175 -150 185 -150 6 0 33 23 59 50 47 50 48 50 71 33 13
-10 76 -58 139 -107 l116 -89 148 7 c622 27 788 38 801 51 17 17 8 58 -19 83
-12 11 -59 36 -106 57 -99 44 -104 43 -134 -46 l-19 -54 0 42 c-1 31 6 49 25
72 l25 30 -60 30 c-65 33 -65 33 -96 -28 -11 -23 -15 -47 -12 -73 6 -47 -10
-51 -19 -4 -7 38 9 98 32 116 23 20 17 26 -43 55 l-57 27 -18 -24 c-26 -34
-58 -123 -58 -163 0 -19 -4 -35 -10 -35 -33 0 9 158 54 203 10 9 15 21 12 25
-3 5 -35 21 -71 37 l-66 28 -40 -39 c-23 -21 -50 -57 -61 -79 -12 -22 -23 -35
-25 -28 -8 22 29 83 72 120 l41 37 -90 79 c-50 44 -97 85 -105 92 -11 11 -8
20 20 55 l34 42 -55 51 c-30 27 -229 214 -442 415 l-387 365 28 41 c115 168
161 371 110 484 -69 150 -222 270 -410 319 l-67 17 -23 -26 c-23 -25 -51 -31
-479 -108 -250 -45 -471 -84 -490 -87 -19 -3 -222 -46 -450 -95 -584 -125
-529 -117 -552 -89 -16 21 -17 26 -5 45 11 15 37 25 102 38 49 10 90 20 93 23
3 2 7 25 9 49 l4 45 -53 16 c-88 26 -275 12 -310 -23 -14 -14 10 -26 25 -14
36 29 211 39 295 16 25 -7 30 -33 7 -35 -8 -1 -18 -2 -22 -3 -5 -1 -28 -6 -53
-10 -65 -11 -223 -56 -234 -67 -16 -15 24 -10 92 11 83 26 88 25 59 -9 -13
-16 -35 -50 -47 -75 -12 -25 -26 -46 -31 -46 -5 0 -42 -34 -82 -75 -97 -98
-158 -127 -281 -133 -50 -3 -86 -1 -83 4 3 5 -19 9 -49 10 -30 0 -57 3 -60 7
-10 10 98 277 109 270 6 -3 7 -1 3 6 -4 6 2 38 14 72 12 33 20 62 18 63 -1 1
-30 12 -63 23 -33 12 -154 55 -270 96 -115 41 -264 94 -330 117 -66 23 -176
62 -245 86 -69 25 -130 47 -136 49 -7 2 0 49 21 142 56 238 156 657 161 676 3
9 1 17 -3 17 -5 0 -55 -189 -112 -421z m2158 -1789 c-30 -27 -84 -69 -120 -93
-35 -24 -66 -52 -67 -61 -2 -10 12 -31 34 -50 l39 -33 -60 -69 c-33 -38 -82
-93 -109 -121 l-49 -53 -490 0 c-270 0 -488 2 -485 5 3 3 67 21 142 40 281 70
533 167 1066 411 41 19 91 43 110 54 52 28 51 24 -11 -30z m-39 -529 c16 -31
12 -49 -15 -67 -23 -15 -27 -15 -50 0 -27 18 -33 54 -13 74 19 19 66 15 78 -7z
m2549 -149 c-28 -18 -53 -46 -69 -75 -14 -26 -28 -47 -32 -47 -9 0 8 55 25 80
22 31 78 70 101 70 14 0 7 -8 -25 -28z m-5729 -127 l0 -75 -4155 0 -4155 0 0
75 0 75 4155 0 4155 0 0 -75z m5628 -167 c36 -36 -11 -93 -57 -69 -39 21 -21
81 24 81 12 0 26 -5 33 -12z m-2053 -118 c-3 -5 -12 -10 -18 -10 -7 0 -29 -9
-50 -20 -48 -26 -50 1 -2 28 25 14 78 16 70 2z"/>
<path d="M16796 3987 c-251 -629 -367 -929 -362 -935 2 -2 80 189 174 425 208
525 245 623 241 628 -2 2 -26 -51 -53 -118z"/>
<path d="M15665 3882 c-10 -38 4 -83 43 -139 l35 -53 94 0 93 0 0 -142 0 -143
89 -70 c48 -38 93 -71 100 -73 8 -3 11 82 11 316 0 313 0 321 -20 327 -11 4
-115 5 -230 4 l-209 -3 -6 -24z"/>
<path d="M3950 3403 c229 -7 9260 -7 9260 0 0 4 -2105 6 -4677 5 -2573 -1
-4635 -3 -4583 -5z"/>
<path d="M16430 3390 c-9 -6 -10 -10 -3 -10 6 0 15 5 18 10 8 12 4 12 -15 0z"/>
<path d="M16365 3239 c-4 -6 -5 -12 -2 -15 2 -3 7 2 10 11 7 17 1 20 -8 4z"/>
<path d="M16211 3224 c0 -11 3 -14 6 -6 3 7 2 16 -1 19 -3 4 -6 -2 -5 -13z"/>
<path d="M16357 3189 c7 -7 15 -10 18 -7 3 3 -2 9 -12 12 -14 6 -15 5 -6 -5z"/>
<path d="M3841 3055 c8 -7 9397 -10 9405 -2 4 4 -2111 7 -4701 7 -2590 0
-4706 -2 -4704 -5z"/>
<path d="M16138 3053 c7 -3 16 -2 19 1 4 3 -2 6 -13 5 -11 0 -14 -3 -6 -6z"/>
<path d="M15354 2899 c-4 -7 -3 -9 4 -5 5 3 13 0 15 -6 4 -9 6 -10 6 -1 1 17
-16 25 -25 12z"/>
<path d="M13430 2890 c0 -14 209 -86 425 -145 120 -33 489 -118 630 -145 33
-6 68 -14 78 -16 9 -3 17 -2 17 3 0 5 -46 19 -102 32 -498 113 -857 207 -1000
261 -26 10 -48 15 -48 10z"/>
<path d="M15315 2840 c6 -10 4 -12 -8 -7 -9 3 -19 2 -22 -3 -7 -12 5 -40 18
-40 7 0 7 4 -1 12 -16 16 -15 29 2 22 18 -7 30 12 15 22 -8 5 -9 3 -4 -6z"/>
<path d="M3718 2703 c34 -2 88 -2 120 0 31 2 3 3 -63 3 -66 0 -92 -1 -57 -3z"/>
<path d="M3903 2704 c10 -10 9616 -14 9622 -4 4 7 -1742 10 -4811 10 -2650 0
-4815 -3 -4811 -6z"/>
<path d="M3085 2255 c-67 -50 -153 -96 -235 -124 -54 -20 -55 -20 -64 0 -13
28 -51 23 -79 -11 -30 -36 -32 -36 -64 -10 -31 24 -91 27 -100 4 -6 -15 32
-64 50 -64 5 0 -2 9 -17 21 -52 41 -18 66 44 34 17 -9 30 -21 31 -28 0 -6 2
-22 4 -33 3 -16 -15 -42 -67 -98 -134 -145 -265 -312 -285 -361 -3 -10 197 85
476 224 264 133 481 245 481 249 0 12 -97 223 -107 233 -5 5 -35 -11 -68 -36z
m-319 -144 c-4 -6 -19 -11 -34 -11 l-27 1 24 20 c24 20 51 13 37 -10z m363 -5
c16 -19 -4 -59 -26 -54 -26 5 -39 34 -24 52 17 20 35 20 50 2z"/>
</g>
</svg>
